<svg xmlns="http://www.w3.org/2000/svg" viewBox="0 0 24 24" role="img" aria-label="OpenAI">
  <rect width="24" height="24" rx="12" fill="#10A37F"/>
  <path fill="#FFFFFF" d="M12 6.2c2.1 0 3.8 1.7 3.8 3.8 0 1.4-.8 2.7-2 3.3.6.3 1 .9 1 1.6 0 1-.8 1.8-1.8 1.8H8.9c-.9 0-1.6-.7-1.6-1.6 0-.8.6-1.4 1.4-1.6-.9-.6-1.5-1.6-1.5-2.7 0-1.8 1.5-3.3 3.3-3.3h1.5zm-1.6 7.4c-.5 0-.9.4-.9.9s.4.9.9.9h4.1c.4 0 .7-.3.7-.7 0-.4-.3-.7-.7-.7h-4.1zm1.6-6.6c-1.3 0-2.4 1.1-2.4 2.4 0 1.1.7 2 1.7 2.3h1.4c1.3 0 2.4-1.1 2.4-2.4S13.3 7 12 7h-1z"/>
</svg>
