<?xml version="1.0" encoding="UTF-8" standalone="no"?>
<!-- Created with Inkscape (http://www.inkscape.org/) -->

<svg
   width="37.986179mm"
   height="37.986172mm"
   viewBox="0 0 37.986179 37.986172"
   version="1.1"
   id="svg5"
   inkscape:version="1.2.2 (732a01da63, 2022-12-09)"
   xml:space="preserve"
   sodipodi:docname="Uber One (Icon, 2023).svg"
   xmlns:inkscape="http://www.inkscape.org/namespaces/inkscape"
   xmlns:sodipodi="http://sodipodi.sourceforge.net/DTD/sodipodi-0.dtd"
   xmlns="http://www.w3.org/2000/svg"
   xmlns:svg="http://www.w3.org/2000/svg"><sodipodi:namedview
     id="namedview7"
     pagecolor="#c4c4c4"
     bordercolor="#000000"
     borderopacity="0.25"
     inkscape:showpageshadow="2"
     inkscape:pageopacity="0"
     inkscape:pagecheckerboard="true"
     inkscape:deskcolor="#383838"
     inkscape:document-units="mm"
     showgrid="true"
     showguides="false"
     inkscape:zoom="0.60938539"
     inkscape:cx="77.947388"
     inkscape:cy="63.998908"
     inkscape:window-width="1366"
     inkscape:window-height="705"
     inkscape:window-x="-8"
     inkscape:window-y="-8"
     inkscape:window-maximized="1"
     inkscape:current-layer="layer1" /><defs
     id="defs2">
	
	
	
	
</defs><g
     inkscape:label="Layer 1"
     inkscape:groupmode="layer"
     id="layer1"
     transform="translate(-71.801449,-137.54559)"><path
       id="path1183-4-1"
       style="display:inline;fill:#996f00;fill-opacity:1;stroke-width:6.86397"
       d="m 90.794528,137.54559 a 18.993027,18.993264 0 0 0 -18.993079,18.99309 18.993027,18.993264 0 0 0 18.993079,18.99308 18.993027,18.993264 0 0 0 18.993102,-18.99308 18.993027,18.993264 0 0 0 -18.993102,-18.99309 z m 0,5.31433 a 13.678894,13.679061 0 0 1 1.44201,0.0846 9.3915837,9.3915837 0 0 1 -9.34682,8.52029 9.3915837,9.3915837 0 0 1 -4.308891,-1.05956 13.678894,13.679061 0 0 1 12.213701,-7.54538 z m 6.990965,1.92894 a 13.678894,13.679061 0 0 1 6.688327,11.74982 13.678894,13.679061 0 0 1 -6.688327,11.75624 z m -5.313799,7.86516 v 17.46054 a 13.678894,13.679061 0 0 1 -1.677166,0.10335 13.678894,13.679061 0 0 1 -13.678744,-13.67927 13.678894,13.679061 0 0 1 0.02248,-0.51264 14.935337,14.935337 0 0 0 4.93401,0.84421 14.935337,14.935337 0 0 0 10.399402,-4.21623 z" /></g></svg>
