<?xml version="1.0" encoding="UTF-8" standalone="no"?>
<!DOCTYPE svg PUBLIC "-//W3C//DTD SVG 1.1//EN" "http://www.w3.org/Graphics/SVG/1.1/DTD/svg11.dtd">
<svg width="100%" height="100%" viewBox="0 0 250 250" version="1.1" xmlns="http://www.w3.org/2000/svg" xmlns:xlink="http://www.w3.org/1999/xlink" xml:space="preserve" xmlns:serif="http://www.serif.com/" style="fill-rule:evenodd;clip-rule:evenodd;stroke-linejoin:round;stroke-miterlimit:2;">
    <g transform="matrix(0.991581,0,0,0.991581,0,0)">
        <path id="path4" d="M125.904,101.1C125.904,101.1 126.218,101.1 125.904,101.1C163.895,129.986 228.261,200.945 208.794,221.039C186.502,240.506 157.616,252.123 125.904,252.123C94.193,252.123 64.993,240.506 43.015,221.039C23.234,200.945 87.913,129.986 125.59,101.414C125.59,101.1 125.904,101.1 125.904,101.1ZM191.525,18.525C172.373,6.907 151.336,0 125.904,0C100.472,0 79.436,6.907 60.283,18.525C59.969,18.525 59.969,18.839 59.969,19.153C59.969,19.467 60.283,19.467 60.597,19.467C85.087,14.129 122.137,35.165 125.59,37.363L126.218,37.363C129.672,35.165 166.721,14.129 191.211,19.467C191.525,19.467 191.839,19.467 191.839,19.153C191.839,18.839 191.839,18.525 191.525,18.525ZM37.677,36.107C37.363,36.107 37.363,36.421 37.049,36.421C14.129,59.341 0,91.053 0,125.904C0,154.476 9.733,181.164 25.746,202.201C25.746,202.514 26.06,202.514 26.374,202.514C26.688,202.514 26.688,202.201 26.374,201.887C16.641,172.059 65.935,100.158 91.367,70.017L91.681,69.703C91.681,69.389 91.681,69.389 91.367,69.389C52.748,31.084 39.875,35.165 37.677,36.107ZM160.442,69.075L160.128,69.389C160.128,69.389 160.128,69.703 160.442,69.703C185.874,99.844 234.854,171.745 225.435,201.573L225.435,202.201C225.749,202.201 226.063,202.201 226.063,201.887C242.075,180.85 251.809,154.162 251.809,125.59C251.809,90.739 237.68,59.027 214.446,36.107C214.132,35.793 214.132,35.793 213.818,35.793C211.934,35.165 199.061,31.084 160.442,69.075Z" style="fill:rgb(15,124,15);fill-rule:nonzero;"/>
    </g>
</svg>
